HIERARCHY
ROOT mixamorig:Hips
{
	OFFSET 0.000000 201.639420 0.000000
	CHANNELS 6 Xposition Yposition Zposition Xrotation Yrotation Zrotation
	JOINT mixamorig:Spine
	{
		OFFSET 0.006200 19.524994 -2.481800
		CHANNELS 3 Xrotation Yrotation Zrotation
		JOINT mixamorig:Spine1
		{
			OFFSET -0.000900 22.835007 -2.825400
			CHANNELS 3 Xrotation Yrotation Zrotation
			JOINT mixamorig:Spine2
			{
				OFFSET -0.020600 26.552490 -3.193300
				CHANNELS 3 Xrotation Yrotation Zrotation
				JOINT mixamorig:Neck
				{
					OFFSET -0.060000 30.701813 1.352200
					CHANNELS 3 Xrotation Yrotation Zrotation
					JOINT mixamorig:Head
					{
						OFFSET -0.087200 22.547607 3.670900
						CHANNELS 3 Xrotation Yrotation Zrotation
						JOINT mixamorig:HeadTop_End
						{
							OFFSET -0.830600 40.355194 7.893500
							CHANNELS 3 Xrotation Yrotation Zrotation
							End Site
							{
								OFFSET 0.000000 30.592346 0.000000
							}
						}
						JOINT mixamorig:RightEye
						{
							OFFSET -6.302100 18.118591 16.197100
							CHANNELS 3 Xrotation Yrotation Zrotation
							End Site
							{
								OFFSET 0.000000 30.592346 0.000000
							}
						}
						JOINT mixamorig:LeftEye
						{
							OFFSET 6.741500 18.382690 16.401899
							CHANNELS 3 Xrotation Yrotation Zrotation
							End Site
							{
								OFFSET 0.000000 30.592346 0.000000
							}
						}
					}
				}
				JOINT mixamorig:LeftShoulder
				{
					OFFSET 11.924900 18.230499 1.425400
					CHANNELS 3 Xrotation Yrotation Zrotation
					JOINT mixamorig:LeftArm
					{
						OFFSET 25.435989 -0.697632 -5.229300
						CHANNELS 3 Xrotation Yrotation Zrotation
						JOINT mixamorig:LeftForeArm
						{
							OFFSET 54.684776 0.000000 0.000000
							CHANNELS 3 Xrotation Yrotation Zrotation
							JOINT mixamorig:LeftHand
							{
								OFFSET 55.098175 0.000000 0.000000
								CHANNELS 3 Xrotation Yrotation Zrotation
								JOINT mixamorig:LeftHandMiddle1
								{
									OFFSET 23.369751 0.000000 0.000000
									CHANNELS 3 Xrotation Yrotation Zrotation
									JOINT mixamorig:LeftHandMiddle2
									{
										OFFSET 6.378677 0.000000 0.000000
										CHANNELS 3 Xrotation Yrotation Zrotation
										JOINT mixamorig:LeftHandMiddle3
										{
											OFFSET 6.148331 0.000000 0.000000
											CHANNELS 3 Xrotation Yrotation Zrotation
											JOINT mixamorig:LeftHandMiddle4
											{
												OFFSET 6.582504 0.000000 0.000000
												CHANNELS 3 Xrotation Yrotation Zrotation
												End Site
												{
													OFFSET -1.168900 6.395691 1.028606
												}
											}
										}
									}
								}
								JOINT mixamorig:LeftHandThumb1
								{
									OFFSET 7.235672 -3.848206 5.434273
									CHANNELS 3 Xrotation Yrotation Zrotation
									JOINT mixamorig:LeftHandThumb2
									{
										OFFSET 6.568451 -3.792297 3.792300
										CHANNELS 3 Xrotation Yrotation Zrotation
										JOINT mixamorig:LeftHandThumb3
										{
											OFFSET 6.063080 -3.500519 3.500518
											CHANNELS 3 Xrotation Yrotation Zrotation
											JOINT mixamorig:LeftHandThumb4
											{
												OFFSET 4.793182 -2.767334 2.767349
												CHANNELS 3 Xrotation Yrotation Zrotation
												End Site
												{
													OFFSET 0.101639 6.054260 1.275483
												}
											}
										}
									}
								}
								JOINT mixamorig:LeftHandIndex1
								{
									OFFSET 23.101074 -0.309540 4.992809
									CHANNELS 3 Xrotation Yrotation Zrotation
									JOINT mixamorig:LeftHandIndex2
									{
										OFFSET 6.226883 0.000000 0.000000
										CHANNELS 3 Xrotation Yrotation Zrotation
										JOINT mixamorig:LeftHandIndex3
										{
											OFFSET 6.094330 0.000000 0.000000
											CHANNELS 3 Xrotation Yrotation Zrotation
											JOINT mixamorig:LeftHandIndex4
											{
												OFFSET 5.482605 0.000000 0.000000
												CHANNELS 3 Xrotation Yrotation Zrotation
												End Site
												{
													OFFSET -1.427902 5.233032 0.797164
												}
											}
										}
									}
								}
								JOINT mixamorig:LeftHandRing1
								{
									OFFSET 22.299240 0.021149 -3.964172
									CHANNELS 3 Xrotation Yrotation Zrotation
									JOINT mixamorig:LeftHandRing2
									{
										OFFSET 6.321869 0.000000 0.000000
										CHANNELS 3 Xrotation Yrotation Zrotation
										JOINT mixamorig:LeftHandRing3
										{
											OFFSET 5.899796 0.000000 0.000000
											CHANNELS 3 Xrotation Yrotation Zrotation
											JOINT mixamorig:LeftHandRing4
											{
												OFFSET 6.517899 0.000000 0.000000
												CHANNELS 3 Xrotation Yrotation Zrotation
												End Site
												{
													OFFSET -1.637299 6.232208 0.980890
												}
											}
										}
									}
								}
								JOINT mixamorig:LeftHandPinky1
								{
									OFFSET 20.463791 -0.302338 -8.562233
									CHANNELS 3 Xrotation Yrotation Zrotation
									JOINT mixamorig:LeftHandPinky2
									{
										OFFSET 6.908646 0.000000 0.000000
										CHANNELS 3 Xrotation Yrotation Zrotation
										JOINT mixamorig:LeftHandPinky3
										{
											OFFSET 4.622849 0.000000 0.000000
											CHANNELS 3 Xrotation Yrotation Zrotation
											JOINT mixamorig:LeftHandPinky4
											{
												OFFSET 5.216080 0.000000 0.000000
												CHANNELS 3 Xrotation Yrotation Zrotation
												End Site
												{
													OFFSET -0.606308 5.116241 0.814926
												}
											}
										}
									}
								}
							}
						}
					}
				}
				JOINT mixamorig:RightShoulder
				{
					OFFSET -12.001300 18.284088 1.348900
					CHANNELS 3 Xrotation Yrotation Zrotation
					JOINT mixamorig:RightArm
					{
						OFFSET -25.308500 -0.751312 -5.164599
						CHANNELS 3 Xrotation Yrotation Zrotation
						JOINT mixamorig:RightForeArm
						{
							OFFSET -54.684429 0.000000 0.000000
							CHANNELS 3 Xrotation Yrotation Zrotation
							JOINT mixamorig:RightHand
							{
								OFFSET -55.150291 0.000000 0.000000
								CHANNELS 3 Xrotation Yrotation Zrotation
								JOINT mixamorig:RightHandMiddle1
								{
									OFFSET -23.317566 0.000000 0.000000
									CHANNELS 3 Xrotation Yrotation Zrotation
									JOINT mixamorig:RightHandMiddle2
									{
										OFFSET -6.378403 0.000000 0.000000
										CHANNELS 3 Xrotation Yrotation Zrotation
										JOINT mixamorig:RightHandMiddle3
										{
											OFFSET -6.148193 0.000000 0.000000
											CHANNELS 3 Xrotation Yrotation Zrotation
											JOINT mixamorig:RightHandMiddle4
											{
												OFFSET -6.583389 0.000000 0.000000
												CHANNELS 3 Xrotation Yrotation Zrotation
												End Site
												{
													OFFSET 1.171692 6.395905 1.029786
												}
											}
										}
									}
								}
								JOINT mixamorig:RightHandThumb1
								{
									OFFSET -7.190521 -3.860474 5.435846
									CHANNELS 3 Xrotation Yrotation Zrotation
									JOINT mixamorig:RightHandThumb2
									{
										OFFSET -6.567429 -3.791718 3.791708
										CHANNELS 3 Xrotation Yrotation Zrotation
										JOINT mixamorig:RightHandThumb3
										{
											OFFSET -6.062469 -3.500153 3.500166
											CHANNELS 3 Xrotation Yrotation Zrotation
											JOINT mixamorig:RightHandThumb4
											{
												OFFSET -4.792618 -2.767029 2.767022
												CHANNELS 3 Xrotation Yrotation Zrotation
												End Site
												{
													OFFSET -0.100327 6.053253 1.276754
												}
											}
										}
									}
								}
								JOINT mixamorig:RightHandIndex1
								{
									OFFSET -23.048981 -0.310791 4.992554
									CHANNELS 3 Xrotation Yrotation Zrotation
									JOINT mixamorig:RightHandIndex2
									{
										OFFSET -6.227539 0.000000 0.000000
										CHANNELS 3 Xrotation Yrotation Zrotation
										JOINT mixamorig:RightHandIndex3
										{
											OFFSET -6.095047 0.000000 0.000000
											CHANNELS 3 Xrotation Yrotation Zrotation
											JOINT mixamorig:RightHandIndex4
											{
												OFFSET -5.484772 0.000000 0.000000
												CHANNELS 3 Xrotation Yrotation Zrotation
												End Site
												{
													OFFSET 1.420593 5.237305 0.797056
												}
											}
										}
									}
								}
								JOINT mixamorig:RightHandRing1
								{
									OFFSET -22.246323 0.020569 -3.963762
									CHANNELS 3 Xrotation Yrotation Zrotation
									JOINT mixamorig:RightHandRing2
									{
										OFFSET -6.322128 0.000000 0.000000
										CHANNELS 3 Xrotation Yrotation Zrotation
										JOINT mixamorig:RightHandRing3
										{
											OFFSET -5.900024 0.000000 0.000000
											CHANNELS 3 Xrotation Yrotation Zrotation
											JOINT mixamorig:RightHandRing4
											{
												OFFSET -6.518356 0.000000 0.000000
												CHANNELS 3 Xrotation Yrotation Zrotation
												End Site
												{
													OFFSET 1.636398 6.232697 0.982186
												}
											}
										}
									}
								}
								JOINT mixamorig:RightHandPinky1
								{
									OFFSET -20.411011 -0.303314 -8.561701
									CHANNELS 3 Xrotation Yrotation Zrotation
									JOINT mixamorig:RightHandPinky2
									{
										OFFSET -6.907349 0.000000 0.000000
										CHANNELS 3 Xrotation Yrotation Zrotation
										JOINT mixamorig:RightHandPinky3
										{
											OFFSET -4.623840 0.000000 0.000000
											CHANNELS 3 Xrotation Yrotation Zrotation
											JOINT mixamorig:RightHandPinky4
											{
												OFFSET -5.218353 0.000000 0.000000
												CHANNELS 3 Xrotation Yrotation Zrotation
												End Site
												{
													OFFSET 0.602097 5.118835 0.816273
												}
											}
										}
									}
								}
							}
						}
					}
				}
			}
		}
	}
	JOINT mixamorig:LeftUpLeg
	{
		OFFSET 18.168400 -13.561905 -0.039000
		CHANNELS 3 Xrotation Yrotation Zrotation
		JOINT mixamorig:LeftLeg
		{
			OFFSET 0.577358 -80.825211 -3.695000
			CHANNELS 3 Xrotation Yrotation Zrotation
			JOINT mixamorig:LeftFoot
			{
				OFFSET -0.577356 -83.370262 -6.520700
				CHANNELS 3 Xrotation Yrotation Zrotation
				JOINT mixamorig:LeftToeBase
				{
					OFFSET 0.750401 -20.798306 25.135401
					CHANNELS 3 Xrotation Yrotation Zrotation
					JOINT mixamorig:LeftToe_End
					{
						OFFSET -0.000500 0.001200 19.917799
						CHANNELS 3 Xrotation Yrotation Zrotation
						End Site
						{
							OFFSET 0.000000 19.917805 0.000000
						}
					}
				}
			}
		}
	}
	JOINT mixamorig:RightUpLeg
	{
		OFFSET -18.162500 -13.585098 -0.041000
		CHANNELS 3 Xrotation Yrotation Zrotation
		JOINT mixamorig:RightLeg
		{
			OFFSET -0.595024 -80.945297 -3.631900
			CHANNELS 3 Xrotation Yrotation Zrotation
			JOINT mixamorig:RightFoot
			{
				OFFSET 0.595024 -83.218193 -6.561200
				CHANNELS 3 Xrotation Yrotation Zrotation
				JOINT mixamorig:RightToeBase
				{
					OFFSET -0.753601 -20.807106 25.115000
					CHANNELS 3 Xrotation Yrotation Zrotation
					JOINT mixamorig:RightToe_End
					{
						OFFSET 0.000299 0.001700 19.918200
						CHANNELS 3 Xrotation Yrotation Zrotation
						End Site
						{
							OFFSET 0.000000 19.918203 0.000000
						}
					}
				}
			}
		}
	}
}
MOTION
Frames: 4
Frame Time: 0.033333
0.272687 184.705795 -1.285168 -11.502056 -32.417676 -2.643208 13.590523 -4.596387 5.560655 2.026176 -2.342326 0.827084 2.015413 -2.337418 0.867624 13.152126 13.393338 -6.449617 16.976314 9.989555 4.216576 -0.000002 -0.000002 0.000003 -0.000002 -0.000002 0.000003 -0.000002 -0.000002 0.000003 0.252790 -11.739852 -12.807356 -48.663288 -13.275546 -40.726065 0.000002 -71.550302 -0.000003 -131.817638 -6.665180 28.493270 0.405904 5.507046 -52.453151 3.387139 5.308609 -65.057463 0.282006 1.797439 -17.832393 0.000002 -0.000000 -0.000000 4.709205 9.560391 3.111986 19.473165 -1.474867 7.636915 -4.536172 -9.613115 1.492984 0.000004 0.000001 -0.000002 -0.212824 3.933721 -36.747125 2.942132 5.078895 -60.144604 0.513681 2.400825 -24.150487 -0.000002 0.000000 0.000001 -0.074380 5.736811 -61.061440 4.055034 5.569511 -72.094935 0.582666 2.548971 -25.747986 -0.000001 0.000002 -0.000001 -6.565578 4.545155 -72.425222 3.299614 5.267212 -64.107821 0.175350 1.424010 -14.038882 0.000000 0.000001 0.000002 0.505178 5.257284 11.859114 -27.407019 61.318542 50.818581 0.000114 104.950289 -0.000129 -53.048679 -30.107460 -32.077208 3.413054 -7.186257 51.650256 6.296828 -4.359587 110.634667 0.248704 -1.503058 18.790279 0.000001 -0.000000 -0.000000 8.377140 -4.904121 11.022016 21.620207 -18.183902 -18.379216 -0.702954 -49.821217 -32.535200 -0.000001 -0.000001 0.000000 -0.920029 1.683584 12.434979 0.748109 -2.533457 32.898275 0.615633 -2.316062 29.767832 0.000002 0.000001 -0.000003 -3.349040 -2.600429 57.010564 5.440871 -4.590892 99.698147 1.689411 -3.590685 50.382218 -0.000001 0.000001 -0.000002 -3.996453 -3.303930 64.593857 4.058843 -4.618654 82.610523 2.315553 -4.026783 59.787214 -0.000002 0.000000 0.000001 -30.088650 29.117756 15.514735 76.554065 -10.438080 2.919502 14.405062 4.136660 15.223826 -22.366590 1.435406 -6.896479 -0.000001 -0.000001 0.000001 -25.330569 -1.590169 5.881419 49.259710 -4.843667 -10.027071 -14.471219 -0.212382 1.255911 -11.330459 0.000005 0.000000 0.000000 -0.000000 0.000000 
-0.312169 185.628967 4.967140 -11.496822 -32.416675 -2.591204 13.542428 -4.585993 5.538338 2.093940 -2.317779 0.846184 2.083413 -2.309171 0.877985 13.065894 13.392741 -6.442312 16.677551 9.849077 4.723244 -0.000001 0.000000 -0.000001 -0.000001 0.000000 -0.000001 -0.000001 0.000000 -0.000001 0.281502 -11.810416 -11.346614 -48.686654 -13.072577 -40.509186 -0.000018 -69.705584 -0.000006 -133.343925 -6.014142 27.191972 0.405913 5.507053 -52.453165 3.387344 5.308709 -65.059683 0.282007 1.797451 -17.832379 0.000001 0.000003 -0.000001 4.709211 9.560381 3.111986 19.473166 -1.474873 7.636916 -4.536173 -9.613125 1.492984 0.000001 0.000003 -0.000002 -0.212824 3.933720 -36.747142 2.942129 5.078889 -60.144597 0.513679 2.400838 -24.150492 0.000001 -0.000001 -0.000001 -0.074379 5.736807 -61.061427 4.055045 5.569525 -72.094901 0.582663 2.548940 -25.748022 -0.000000 -0.000001 -0.000002 -6.565567 4.545150 -72.425215 3.299621 5.267192 -64.107828 0.175344 1.424014 -14.038898 -0.000002 -0.000001 -0.000004 0.496535 5.261436 11.619533 -30.220848 62.330906 53.391152 -0.000091 103.087348 0.000121 -52.829676 -29.839119 -31.974865 3.422292 -7.195487 51.606905 6.297147 -4.359479 110.638874 0.248710 -1.503067 18.790274 0.000000 0.000000 -0.000001 8.377132 -4.904120 11.022005 21.620189 -18.183885 -18.379213 -0.378910 -49.681071 -32.337059 0.000004 -0.000001 -0.000001 -0.920027 1.683579 12.434961 0.748110 -2.533447 32.898296 0.615638 -2.316065 29.767832 -0.000000 0.000000 -0.000000 -3.337691 -2.602119 56.968876 5.440840 -4.590911 99.697853 1.689413 -3.590663 50.382194 -0.000001 -0.000001 -0.000001 -3.996458 -3.303936 64.593850 4.058417 -4.618620 82.605435 2.315412 -4.026711 59.785179 -0.000001 0.000001 -0.000001 -32.368000 25.156302 14.181278 70.031705 -7.676718 3.328161 8.143622 5.324051 9.283421 -23.086106 1.821909 -8.047671 -0.000001 -0.000001 0.000001 -23.066331 -1.921657 4.500281 49.144775 -3.913657 -10.083031 -16.297624 -0.218257 2.225952 -11.373539 0.000000 0.000000 -0.000000 -0.000003 -0.000000 
-0.824398 186.191040 10.852997 -11.487288 -32.337814 -2.509787 13.405299 -4.602047 5.513747 2.283078 -2.249042 0.898284 2.273094 -2.230067 0.905750 12.824320 13.388565 -6.417907 16.169286 9.706647 5.300546 -0.000000 0.000001 0.000003 -0.000000 0.000001 0.000003 -0.000000 0.000001 0.000003 0.223280 -12.284217 -10.029357 -49.378258 -12.117237 -40.578516 0.000050 -68.020665 0.000032 -134.103483 -4.830559 26.426222 0.405916 5.507047 -52.453172 3.387570 5.308809 -65.062285 0.282017 1.797465 -17.832369 -0.000001 -0.000000 0.000000 4.709204 9.560384 3.111985 19.473166 -1.474867 7.636915 -4.536170 -9.613122 1.492986 0.000001 0.000004 -0.000002 -0.212817 3.933713 -36.747135 2.942129 5.078905 -60.144624 0.513686 2.400827 -24.150490 0.000001 0.000002 -0.000002 -0.074380 5.736817 -61.061434 4.055041 5.569527 -72.094914 0.582664 2.548964 -25.748005 -0.000001 -0.000004 -0.000003 -6.565569 4.545155 -72.425236 3.299611 5.267203 -64.107821 0.175341 1.424025 -14.038881 -0.000001 0.000002 0.000003 0.503983 5.219818 11.335222 -33.609366 63.388513 56.410829 0.000045 101.244522 -0.000040 -52.602033 -29.673689 -32.102951 3.448393 -7.221791 51.483951 6.298059 -4.359137 110.650847 0.248712 -1.503069 18.790257 0.000001 -0.000000 -0.000000 8.377134 -4.904134 11.022013 21.620211 -18.183891 -18.379219 0.648751 -49.233544 -31.738141 0.000001 0.000001 0.000001 -0.920036 1.683579 12.434982 0.748104 -2.533485 32.898289 0.615635 -2.316067 29.767822 -0.000000 -0.000000 -0.000001 -3.305600 -2.607086 56.850673 5.440770 -4.590931 99.696972 1.689399 -3.590674 50.382064 -0.000001 -0.000000 0.000000 -3.996450 -3.303940 64.593857 4.057275 -4.618435 82.590873 2.314972 -4.026462 59.779284 -0.000002 0.000001 -0.000001 -33.199142 21.672202 12.602922 60.959418 -3.387940 3.249999 1.687308 8.104418 4.947352 -13.329451 0.505650 -6.709904 -0.000000 -0.000000 -0.000000 -21.068470 -2.340232 3.061389 49.341129 -2.592974 -10.064186 -18.079509 -0.112486 2.868813 -11.604318 0.000026 0.000006 0.000001 -0.000001 0.000000 
-1.399935 186.481537 17.031029 -11.466553 -32.173620 -2.382212 13.182046 -4.649612 5.468519 2.573753 -2.143124 0.975989 2.564414 -2.107873 0.946150 12.452187 13.376826 -6.373276 15.523495 9.594761 5.718187 0.000000 -0.000001 -0.000001 0.000000 -0.000001 -0.000001 0.000000 -0.000001 -0.000001 0.108326 -12.903096 -8.796980 -49.981767 -11.282997 -40.419144 0.000014 -66.241470 0.000003 -135.030162 -3.585799 25.538952 0.405913 5.507033 -52.453151 3.387843 5.308959 -65.065161 0.282024 1.797455 -17.832383 0.000001 0.000001 -0.000003 4.709211 9.560364 3.111988 19.473170 -1.474866 7.636916 -4.536177 -9.613118 1.492984 -0.000001 0.000002 0.000001 -0.212821 3.933711 -36.747125 2.942126 5.078889 -60.144624 0.513685 2.400832 -24.150480 0.000005 0.000001 -0.000002 -0.074369 5.736811 -61.061420 4.055034 5.569504 -72.094901 0.582655 2.548957 -25.748001 -0.000002 0.000003 0.000001 -6.565574 4.545133 -72.425222 3.299611 5.267210 -64.107828 0.175344 1.424008 -14.038878 0.000003 -0.000003 0.000000 0.529535 5.136932 11.013141 -37.365322 64.328661 59.809542 -0.000292 99.397967 0.000242 -52.185862 -29.543444 -32.244807 3.488981 -7.263399 51.291302 6.299515 -4.358585 110.669808 0.248722 -1.503062 18.790264 0.000001 0.000000 -0.000000 8.377158 -4.904124 11.021995 21.620197 -18.183893 -18.379214 2.296217 -48.486577 -30.781685 0.000000 -0.000003 -0.000003 -0.920024 1.683590 12.434949 0.748113 -2.533464 32.898293 0.615624 -2.316064 29.767822 0.000001 0.000000 -0.000001 -3.255508 -2.615224 56.665466 5.440681 -4.590953 99.695743 1.689392 -3.590658 50.381839 -0.000001 0.000001 -0.000004 -3.996447 -3.303923 64.593843 4.055406 -4.618217 82.568033 2.314328 -4.026082 59.769981 0.000000 -0.000000 -0.000000 -32.620546 19.071620 11.685670 49.464725 1.695962 2.441094 -3.949676 11.041581 -0.156873 -6.856799 -0.000003 0.000000 -0.000000 -0.000000 -0.000000 -19.066862 -3.411307 1.220453 49.650943 -0.925129 -10.047155 -20.097046 0.034854 3.272707 -11.907131 -0.000025 -0.000005 -0.000000 -0.000001 -0.000001 
